<?xml version="1.0" encoding="UTF-8"?>
<svg xmlns="http://www.w3.org/2000/svg" xmlns:xlink="http://www.w3.org/1999/xlink" width="24pt" height="24pt" viewBox="0 0 24 24" version="1.1">
<g id="surface1">
<path d="M 14.503906 4.933594 C 14.234375 5.054688 13.964844 5.25 13.90625 5.355469 C 13.828125 5.476562 13.726562 5.519531 13.636719 5.476562 C 13.558594 5.414062 13.5 5.445312 13.5 5.519531 C 13.5 5.59375 13.363281 5.820312 13.199219 6.015625 C 13.035156 6.210938 12.855469 6.433594 12.78125 6.523438 C 12.675781 6.660156 12.40625 7.230469 12 8.175781 C 11.925781 8.339844 11.851562 8.578125 11.804688 8.699219 C 11.773438 8.820312 11.566406 8.941406 11.308594 8.941406 C 10.53125 8.984375 10.453125 9 10.546875 9.089844 C 10.589844 9.136719 10.574219 9.34375 10.5 9.539062 C 10.363281 9.871094 10.394531 9.898438 10.800781 9.898438 C 11.355469 9.898438 11.429688 10.035156 11.234375 10.664062 C 11.144531 10.949219 11.054688 11.339844 11.011719 11.550781 C 10.980469 11.761719 10.90625 12.03125 10.84375 12.148438 C 10.800781 12.269531 10.738281 12.433594 10.726562 12.523438 C 10.695312 12.601562 10.605469 12.976562 10.5 13.351562 C 10.394531 13.726562 10.289062 14.160156 10.261719 14.308594 C 10.230469 14.476562 10.109375 14.910156 9.988281 15.285156 C 9.855469 15.660156 9.734375 16.15625 9.691406 16.394531 C 9.570312 17.070312 9.433594 17.398438 9.285156 17.398438 C 9.195312 17.398438 9.179688 17.476562 9.226562 17.566406 C 9.285156 17.640625 9.210938 17.851562 9.058594 18.015625 C 8.863281 18.226562 8.761719 18.253906 8.609375 18.136719 C 8.488281 18.046875 8.445312 17.910156 8.488281 17.835938 C 8.535156 17.761719 8.488281 17.714844 8.371094 17.730469 C 8.265625 17.761719 8.191406 17.65625 8.191406 17.519531 C 8.203125 17.371094 8.175781 17.265625 8.113281 17.28125 C 8.070312 17.28125 7.996094 17.265625 7.949219 17.25 C 7.90625 17.234375 7.679688 17.203125 7.425781 17.191406 C 6.644531 17.144531 6.105469 17.96875 6.464844 18.628906 C 6.613281 18.914062 7.441406 19.304688 7.710938 19.230469 C 7.785156 19.199219 7.800781 19.304688 7.738281 19.453125 C 7.664062 19.695312 7.679688 19.695312 7.828125 19.5 C 7.949219 19.363281 8.28125 19.273438 8.683594 19.273438 C 9.089844 19.273438 9.359375 19.214844 9.40625 19.078125 C 9.449219 18.976562 9.585938 18.914062 9.703125 18.960938 C 9.824219 19.003906 9.871094 18.976562 9.824219 18.898438 C 9.78125 18.808594 9.796875 18.75 9.886719 18.75 C 9.976562 18.75 10.304688 18.480469 10.636719 18.148438 C 10.964844 17.820312 11.296875 17.550781 11.386719 17.550781 C 11.460938 17.550781 11.578125 17.488281 11.625 17.398438 C 11.683594 17.308594 11.609375 17.296875 11.460938 17.355469 C 11.234375 17.429688 11.25 17.398438 11.488281 17.011719 C 11.640625 16.769531 11.820312 16.53125 11.894531 16.484375 C 11.96875 16.441406 12.015625 16.351562 12.015625 16.289062 C 11.96875 16.003906 12.015625 15.886719 12.136719 15.960938 C 12.210938 16.019531 12.238281 15.898438 12.179688 15.71875 C 12.136719 15.523438 12.164062 15.433594 12.253906 15.496094 C 12.359375 15.570312 12.390625 15.496094 12.34375 15.300781 C 12.300781 15.136719 12.34375 15 12.433594 15 C 12.511719 15 12.554688 14.894531 12.511719 14.773438 C 12.449219 14.65625 12.496094 14.550781 12.585938 14.550781 C 12.675781 14.550781 12.734375 14.503906 12.734375 14.429688 C 12.660156 14.023438 12.765625 13.648438 12.929688 13.738281 C 13.035156 13.800781 13.050781 13.785156 12.988281 13.679688 C 12.855469 13.46875 13.199219 12.136719 13.363281 12.226562 C 13.425781 12.269531 13.453125 12.136719 13.410156 11.941406 C 13.378906 11.730469 13.410156 11.519531 13.5 11.476562 C 13.589844 11.414062 13.621094 11.308594 13.558594 11.234375 C 13.515625 11.144531 13.589844 10.980469 13.738281 10.859375 C 13.90625 10.726562 13.933594 10.664062 13.84375 10.726562 C 13.605469 10.84375 13.605469 10.769531 13.828125 10.273438 C 13.921875 10.066406 14.085938 9.914062 14.191406 9.960938 C 14.308594 10.003906 14.429688 9.976562 14.476562 9.898438 C 14.519531 9.808594 14.699219 9.808594 14.925781 9.898438 C 15.316406 10.050781 15.316406 10.050781 15.359375 9.300781 C 15.375 8.96875 15.316406 8.925781 14.820312 8.941406 C 14.445312 8.941406 14.25 8.878906 14.25 8.746094 C 14.25 8.640625 14.324219 8.550781 14.429688 8.550781 C 14.566406 8.550781 14.566406 8.503906 14.429688 8.371094 C 14.308594 8.25 14.308594 8.128906 14.429688 7.890625 C 14.519531 7.726562 14.609375 7.484375 14.625 7.351562 C 14.683594 6.765625 15.03125 5.863281 15.226562 5.789062 C 15.375 5.746094 15.523438 5.878906 15.691406 6.195312 C 16.003906 6.808594 15.945312 6.75 16.574219 6.898438 C 16.875 6.976562 17.085938 6.988281 17.039062 6.945312 C 17.011719 6.898438 17.113281 6.71875 17.308594 6.539062 C 17.578125 6.300781 17.625 6.136719 17.535156 5.820312 C 17.476562 5.59375 17.460938 5.398438 17.488281 5.355469 C 17.519531 5.324219 17.25 5.144531 16.875 4.964844 C 16.125 4.589844 15.253906 4.574219 14.503906 4.933594 Z M 14.503906 4.933594 "/>
<path d="M 5.265625 8.730469 C 3.34375 9.03125 2.296875 10.441406 2.984375 11.773438 C 3.105469 12.015625 3.195312 12.285156 3.179688 12.34375 C 3.164062 12.421875 3.210938 12.433594 3.300781 12.375 C 3.375 12.328125 3.449219 12.390625 3.449219 12.511719 C 3.449219 12.644531 3.496094 12.734375 3.570312 12.71875 C 3.78125 12.675781 4.199219 12.929688 4.109375 13.066406 C 4.066406 13.140625 4.125 13.15625 4.230469 13.125 C 4.453125 13.035156 5.59375 14.023438 5.746094 14.429688 C 5.789062 14.578125 5.773438 14.730469 5.683594 14.773438 C 5.609375 14.835938 5.578125 14.925781 5.609375 14.984375 C 5.65625 15.046875 5.519531 15.195312 5.296875 15.316406 C 4.46875 15.765625 3.988281 15.523438 3.523438 14.476562 C 3.121094 13.558594 2.96875 13.441406 2.296875 13.410156 C 1.738281 13.378906 1.351562 13.738281 1.320312 14.265625 C 1.289062 14.925781 1.351562 15.34375 1.453125 15.253906 C 1.546875 15.148438 2.039062 15.75 1.996094 15.898438 C 1.980469 15.945312 2.085938 15.988281 2.21875 16.003906 C 2.503906 16.019531 3.074219 16.15625 3.074219 16.199219 C 3.074219 16.335938 5.21875 16.425781 5.355469 16.289062 C 5.398438 16.246094 5.578125 16.273438 5.746094 16.363281 C 5.953125 16.484375 6.015625 16.484375 5.941406 16.363281 C 5.851562 16.214844 6.136719 16.125 6.496094 16.183594 C 6.554688 16.183594 6.601562 16.140625 6.601562 16.050781 C 6.601562 15.976562 6.691406 15.898438 6.796875 15.898438 C 7.035156 15.886719 7.800781 15.210938 7.800781 15 C 7.800781 14.925781 7.859375 14.851562 7.933594 14.851562 C 8.011719 14.851562 8.054688 14.730469 8.023438 14.578125 C 8.011719 14.445312 8.054688 14.203125 8.113281 14.070312 C 8.203125 13.921875 8.191406 13.785156 8.101562 13.726562 C 8.023438 13.679688 7.949219 13.515625 7.949219 13.378906 C 7.949219 13.109375 6.691406 11.65625 6.570312 11.789062 C 6.523438 11.820312 6.316406 11.683594 6.105469 11.488281 C 5.878906 11.28125 5.699219 11.160156 5.699219 11.203125 C 5.699219 11.25 5.59375 11.203125 5.476562 11.101562 C 5.355469 10.996094 5.296875 10.859375 5.339844 10.785156 C 5.386719 10.710938 5.339844 10.664062 5.25 10.679688 C 4.933594 10.753906 4.800781 10.109375 5.070312 9.855469 C 5.398438 9.554688 6.148438 9.40625 6.148438 9.628906 C 6.148438 9.71875 6.195312 9.75 6.238281 9.703125 C 6.375 9.570312 6.914062 10.199219 6.808594 10.363281 C 6.765625 10.441406 6.808594 10.5 6.886719 10.5 C 6.976562 10.5 7.050781 10.636719 7.050781 10.785156 C 7.050781 10.933594 7.15625 11.113281 7.289062 11.160156 C 7.410156 11.203125 7.484375 11.308594 7.441406 11.371094 C 7.363281 11.503906 8.160156 11.445312 8.550781 11.296875 C 8.671875 11.234375 8.820312 11.21875 8.878906 11.21875 C 8.953125 11.234375 8.984375 11.203125 8.984375 11.128906 C 8.96875 11.070312 8.984375 10.996094 9 10.949219 C 9.105469 10.726562 9.058594 9.898438 8.953125 9.898438 C 8.878906 9.898438 8.851562 9.796875 8.894531 9.691406 C 8.953125 9.539062 8.910156 9.496094 8.761719 9.554688 C 8.65625 9.601562 8.550781 9.570312 8.550781 9.496094 C 8.550781 9.375 7.964844 9 7.648438 8.925781 C 6.40625 8.609375 6.148438 8.59375 5.265625 8.730469 Z M 5.265625 8.730469 "/>
<path d="M 18.734375 8.609375 C 18.703125 8.640625 18.375 8.699219 18.015625 8.761719 C 17.65625 8.804688 17.265625 8.925781 17.160156 9.015625 C 17.039062 9.105469 16.949219 9.148438 16.949219 9.089844 C 16.949219 8.851562 16.289062 9.601562 15.976562 10.199219 C 15.511719 11.128906 15.644531 11.863281 16.289062 11.863281 C 16.980469 11.851562 17.054688 11.804688 16.980469 11.488281 C 16.933594 11.308594 16.84375 11.085938 16.753906 10.980469 C 16.484375 10.636719 16.859375 10.46875 17.683594 10.589844 C 18.105469 10.648438 18.449219 10.738281 18.449219 10.800781 C 18.449219 10.84375 18.539062 10.90625 18.644531 10.90625 C 18.734375 10.921875 19.066406 10.964844 19.351562 10.996094 C 19.636719 11.039062 19.933594 11.085938 20.011719 11.085938 C 20.175781 11.101562 19.800781 11.550781 19.621094 11.550781 C 19.546875 11.550781 19.53125 11.476562 19.589844 11.371094 C 19.648438 11.265625 19.636719 11.25 19.515625 11.308594 C 19.425781 11.371094 19.378906 11.476562 19.425781 11.550781 C 19.46875 11.625 18.976562 11.96875 18.34375 12.316406 C 17.699219 12.660156 17.128906 13.019531 17.070312 13.109375 C 16.996094 13.214844 16.949219 13.214844 16.949219 13.125 C 16.949219 13.035156 16.84375 13.109375 16.726562 13.261719 C 16.605469 13.425781 16.5 13.515625 16.5 13.453125 C 16.5 13.273438 15.375 14.503906 15.089844 15 C 14.941406 15.269531 14.789062 15.691406 14.773438 15.914062 C 14.746094 16.304688 14.789062 16.351562 15.179688 16.351562 C 15.496094 16.351562 15.644531 16.261719 15.703125 16.066406 C 15.75 15.898438 15.855469 15.75 15.945312 15.703125 C 16.15625 15.644531 17.746094 16.109375 17.640625 16.214844 C 17.609375 16.246094 18.164062 16.289062 18.871094 16.304688 C 19.726562 16.320312 20.203125 16.261719 20.28125 16.15625 C 20.339844 16.050781 20.460938 15.960938 20.550781 15.960938 C 20.625 15.945312 20.820312 15.929688 20.96875 15.898438 C 21.105469 15.886719 21.148438 15.839844 21.058594 15.808594 C 20.953125 15.765625 21.058594 15.554688 21.300781 15.300781 C 21.554688 15.03125 21.765625 14.566406 21.855469 14.113281 C 22.003906 13.378906 21.988281 13.363281 21.601562 13.199219 C 21.375 13.109375 21.105469 13.050781 20.984375 13.078125 C 20.671875 13.15625 20.578125 13.679688 20.820312 14.054688 C 20.941406 14.25 21.015625 14.398438 20.984375 14.398438 C 20.953125 14.414062 20.671875 14.445312 20.371094 14.488281 C 19.996094 14.550781 19.800781 14.519531 19.800781 14.398438 C 19.800781 14.308594 19.738281 14.265625 19.679688 14.308594 C 19.621094 14.355469 19.261719 14.308594 18.886719 14.21875 C 18.523438 14.144531 18.121094 14.054688 18 14.023438 C 17.878906 14.011719 17.789062 13.890625 17.820312 13.785156 C 17.835938 13.648438 17.773438 13.679688 17.640625 13.84375 C 17.519531 13.996094 17.386719 14.054688 17.339844 13.980469 C 17.296875 13.90625 17.503906 13.710938 17.820312 13.558594 C 18.121094 13.410156 18.554688 13.15625 18.78125 13.003906 C 19.019531 12.855469 19.273438 12.78125 19.363281 12.839844 C 19.484375 12.914062 19.5 12.886719 19.425781 12.75 C 19.335938 12.601562 19.363281 12.570312 19.546875 12.644531 C 19.679688 12.691406 19.785156 12.691406 19.753906 12.628906 C 19.738281 12.570312 19.753906 12.523438 19.800781 12.523438 C 19.859375 12.523438 20.191406 12.269531 20.535156 11.96875 C 20.894531 11.65625 21.253906 11.445312 21.316406 11.488281 C 21.390625 11.535156 21.449219 11.460938 21.449219 11.324219 C 21.449219 11.191406 21.523438 11.128906 21.601562 11.175781 C 21.691406 11.21875 21.75 11.160156 21.75 11.023438 C 21.75 10.859375 21.824219 10.800781 21.988281 10.859375 C 22.109375 10.90625 22.171875 10.890625 22.125 10.800781 C 22.078125 10.726562 22.183594 10.46875 22.351562 10.230469 C 22.53125 10.003906 22.679688 9.660156 22.695312 9.480469 C 22.710938 9.300781 22.769531 9.148438 22.828125 9.148438 C 22.890625 9.148438 22.90625 9.058594 22.859375 8.941406 C 22.726562 8.59375 21.945312 8.683594 21.839844 9.046875 C 21.78125 9.316406 21.691406 9.328125 21.046875 9.238281 C 20.65625 9.195312 20.308594 9.089844 20.28125 9 C 20.25 8.925781 20.128906 8.910156 19.996094 8.953125 C 19.84375 9.015625 19.785156 8.984375 19.84375 8.894531 C 19.921875 8.789062 19.84375 8.761719 19.664062 8.804688 C 19.515625 8.851562 19.246094 8.804688 19.078125 8.714844 C 18.914062 8.625 18.765625 8.578125 18.734375 8.609375 Z M 18.734375 8.609375 "/>
</g>
</svg>
