<?xml version="1.0" encoding="UTF-8"?>
<svg xmlns="http://www.w3.org/2000/svg" xmlns:xlink="http://www.w3.org/1999/xlink" width="24pt" height="24pt" viewBox="0 0 24 24" version="1.1">
<g id="surface1">
<path d="M 150.777995 36.139323 C 147.18099 37.324219 143.922526 38.424479 140.367839 42.148437 C 135.755208 48.580729 134.0625 55.309245 128.307292 63.180339 C 124.371745 67.454427 120.986328 69.401042 120.097656 75.875651 C 120.139974 86.582031 130.592448 85.354818 134.866536 90.85612 C 137.871094 95.595703 135.120443 101.943359 129.703776 102.366536 C 124.414062 102.789714 118.404948 98.557943 113.792318 96.230469 C 110.152995 102.958984 101.774089 116.246745 100.419922 123.610026 C 99.446615 129.534505 108.291016 132.073568 110.914714 128.942057 C 114.257812 124.117839 117.770182 115.865885 120.520833 110.61849 L 127.03776 113.707682 C 122.890625 121.832682 118.489583 130.380859 114.130859 139.267578 C 105.371094 157.210286 97.923177 175.745443 88.994141 193.561198 C 85.397135 200.755208 82.519531 208.330078 79.007161 215.566406 C 77.779948 218.063151 76.129557 221.702474 78.033854 224.283854 C 80.742187 227.923177 84.76237 227.373047 87.216797 224.156901 C 92.929687 216.582031 98.05013 205.70638 102.535807 197.285156 C 117.8125 168.509115 131.396484 138.632812 147.477214 110.279948 C 150.143229 105.540365 152.936198 100.758464 155.263672 95.849609 C 156.914062 92.379557 160.807292 87.724609 162.076823 86.116536 C 165.46224 81.757812 168.805339 84.042969 170.117187 83.196615 C 175.957031 79.684245 160.003255 71.770833 151.582031 63.434245 C 148.619792 60.852865 146.969401 58.525391 148.450521 55.563151 C 149.550781 53.320312 150.566406 50.78125 152.555339 49.130859 C 156.025391 46.295573 160.214844 47.565104 163.98112 49.046224 C 170.244141 51.500651 182.939453 58.35612 183.531901 55.097656 C 188.313802 50.78125 175.152995 40.159505 166.901042 37.535807 C 161.738281 35.843099 155.432943 35.208333 150.777995 36.139323 Z M 150.777995 36.139323 " transform="matrix(0.0923077,0,0,0.0923077,0,0)"/>
<path d="M 47.014974 80.530599 C 42.148437 81.630859 36.858724 84.21224 33.007812 87.34375 C 30.638021 89.248047 28.395182 91.490885 26.617839 93.98763 C 15.572917 109.518229 29.91862 125.218099 41.979167 134.274089 C 48.284505 138.971354 59.752604 146.927083 54.124349 155.983073 C 49.892578 162.796224 37.66276 164.319661 32.923177 157.041016 C 30.595703 153.486328 32.542318 148.027344 31.611328 144.007161 C 29.833984 136.220703 19.804687 132.242839 13.033854 136.728516 C 2.496745 143.795573 7.744141 158.818359 16.038411 165.08138 C 27.379557 173.58724 44.899089 173.417969 58.017578 170.455729 C 62.799479 169.397786 68.089193 167.239583 71.897786 164.150391 C 80.615234 157.083333 84.677734 142.1875 78.753255 131.988932 C 74.690755 125.00651 66.988932 120.182292 60.979818 114.934896 C 55.647786 110.279948 45.23763 104.69401 49.130859 96.01888 C 51.33138 91.110026 58.440755 86.158854 63.476562 90.602214 C 68.850911 95.341797 66.523437 104.736328 72.236328 109.306641 C 77.356771 113.411458 86.79362 111.930339 89.967448 105.963542 C 91.617839 102.874349 91.490885 97.330729 90.559896 93.98763 C 86.835937 80.31901 69.189453 79.980469 58.017578 79.980469 C 54.378255 79.980469 50.569661 79.726562 47.014974 80.530599 Z M 47.014974 80.530599 " transform="matrix(0.0923077,0,0,0.0923077,0,0)"/>
<path d="M 220.009766 104.990234 C 203.251953 117.600911 187.213542 131.311849 171.005859 144.599609 C 163.304036 150.947266 155.094401 157.464193 155.009766 168.001302 C 157.591146 168.59375 160.299479 169.609375 163.007812 169.186198 C 168.932292 168.255208 173.75651 163.938802 180.019531 164.150391 C 194.44987 164.615885 204.860026 176.380208 220.009766 169.186198 C 228.769531 164.996745 235.244141 156.702474 236.55599 147.011719 C 237.148437 142.483724 236.132812 136.559245 230.970052 135.332031 C 218.994141 132.412109 225.849609 147.307943 218.909505 149.423828 C 216.24349 150.270182 212.604167 148.450521 209.980469 147.773437 C 203.759766 146.165365 198.470052 144.980469 191.995443 144.980469 C 207.314453 133.343099 221.829427 120.139974 236.005859 107.10612 C 240.61849 102.832031 248.235677 98.219401 250.39388 91.998698 C 251.367187 89.163411 250.351562 85.86263 250.013021 82.985026 C 240.957031 82.985026 233.001302 87.301432 223.98763 86.962891 C 213.873698 86.582031 199.654948 78.457031 190.00651 84.593099 C 183.616536 88.697917 178.834635 98.092448 176.210937 104.990234 C 175.195312 107.65625 174.222005 112.141927 177.311198 113.919271 C 182.854818 117.050781 190.345052 106.005859 195 104.101562 C 198.723958 102.578125 202.278646 104.186198 206.002604 104.69401 C 210.572917 105.371094 215.397135 104.990234 220.009766 104.990234 Z M 220.009766 104.990234 " transform="matrix(0.0923077,0,0,0.0923077,0,0)"/>
<path d="M 130.465495 69.781901 C 121.32487 74.479167 129.153646 87.766927 138.251953 82.561849 C 146.588542 77.73763 138.167318 65.761719 130.465495 69.781901 Z M 130.465495 69.781901 " transform="matrix(0.0923077,0,0,0.0923077,0,0)"/>
<path d="M 131.184896 104.990234 C 129.746094 105.625 112.81901 95.807292 111.803385 94.91862 C 110.703125 93.98763 116.796875 82.434896 117.643229 81.588542 C 118.616536 80.572917 137.067057 90.771484 137.871094 91.95638 C 138.548177 92.972005 132.412109 104.440104 131.184896 104.990234 Z M 131.184896 104.990234 " transform="matrix(0.0923077,0,0,0.0923077,0,0)"/>
<path d="M 8.445312 19.273438 C 8.476562 19.410156 8.015625 20.191406 7.921875 20.324219 C 7.847656 20.433594 7.597656 20.328125 7.59375 20.175781 C 7.589844 20.011719 7.96875 19.246094 8.03125 19.121094 C 8.152344 18.886719 8.40625 19.097656 8.445312 19.273438 Z M 8.445312 19.273438 "/>
</g>
</svg>
