# Blender v2.90.1 OBJ File: ''
# www.blender.org
mtllib cone.mtl
o Cone
v 0.000000 -1.000000 0.000000
v 0.000000 -1.000000 -1.000000
v 0.406737 -1.000000 -0.913545
v 0.743145 -1.000000 -0.669131
v 0.951057 -1.000000 -0.309017
v 0.994522 -1.000000 0.104529
v 0.866025 -1.000000 0.500000
v 0.587785 -1.000000 0.809017
v 0.207912 -1.000000 0.978148
v -0.207912 -1.000000 0.978148
v -0.587785 -1.000000 0.809017
v -0.866025 -1.000000 0.500000
v -0.994522 -1.000000 0.104528
v -0.951056 -1.000000 -0.309017
v -0.743145 -1.000000 -0.669131
v -0.406736 -1.000000 -0.913546
v 0.000000 1.000000 0.000000
vt 0.750000 0.250000
vt 0.750000 0.490000
vt 0.847617 0.469251
vt 0.250000 0.490000
vt 0.250000 0.250000
vt 0.347617 0.469251
vt 0.928355 0.410591
vt 0.428355 0.410591
vt 0.978254 0.324164
vt 0.478254 0.324164
vt 0.988685 0.224913
vt 0.488685 0.224913
vt 0.957846 0.130000
vt 0.457846 0.130000
vt 0.891068 0.055836
vt 0.391068 0.055836
vt 0.799899 0.015245
vt 0.299899 0.015245
vt 0.700101 0.015245
vt 0.200101 0.015245
vt 0.608932 0.055836
vt 0.108932 0.055836
vt 0.542154 0.130000
vt 0.042154 0.130000
vt 0.511315 0.224913
vt 0.011315 0.224913
vt 0.521746 0.324164
vt 0.021746 0.324164
vt 0.571645 0.410591
vt 0.071645 0.410591
vt 0.652383 0.469251
vt 0.152383 0.469251
vn 0.0000 -1.0000 0.0000
vn 0.0000 0.4472 -0.8944
vn 0.0000 1.0000 0.0000
vn 0.3638 0.4472 -0.8171
vn 0.6647 0.4472 -0.5985
vn 0.8507 0.4472 -0.2764
vn 0.8895 0.4472 0.0935
vn 0.7746 0.4472 0.4472
vn 0.5257 0.4472 0.7236
vn 0.1860 0.4472 0.8749
vn -0.1860 0.4472 0.8749
vn -0.5257 0.4472 0.7236
vn -0.7746 0.4472 0.4472
vn -0.8895 0.4472 0.0935
vn -0.8507 0.4472 -0.2764
vn -0.6647 0.4472 -0.5985
vn -0.3638 0.4472 -0.8171
usemtl None
s 1
f 1/1/1 2/2/1 3/3/1
f 2/4/2 17/5/3 3/6/4
f 1/1/1 3/3/1 4/7/1
f 3/6/4 17/5/3 4/8/5
f 1/1/1 4/7/1 5/9/1
f 4/8/5 17/5/3 5/10/6
f 1/1/1 5/9/1 6/11/1
f 5/10/6 17/5/3 6/12/7
f 1/1/1 6/11/1 7/13/1
f 6/12/7 17/5/3 7/14/8
f 1/1/1 7/13/1 8/15/1
f 7/14/8 17/5/3 8/16/9
f 1/1/1 8/15/1 9/17/1
f 8/16/9 17/5/3 9/18/10
f 1/1/1 9/17/1 10/19/1
f 9/18/10 17/5/3 10/20/11
f 1/1/1 10/19/1 11/21/1
f 10/20/11 17/5/3 11/22/12
f 1/1/1 11/21/1 12/23/1
f 11/22/12 17/5/3 12/24/13
f 1/1/1 12/23/1 13/25/1
f 12/24/13 17/5/3 13/26/14
f 1/1/1 13/25/1 14/27/1
f 13/26/14 17/5/3 14/28/15
f 1/1/1 14/27/1 15/29/1
f 14/28/15 17/5/3 15/30/16
f 1/1/1 15/29/1 16/31/1
f 15/30/16 17/5/3 16/32/17
f 1/1/1 16/31/1 2/2/1
f 16/32/17 17/5/3 2/4/2
