# Blender v2.90.1 OBJ File: ''
# www.blender.org
mtllib lightcone2.mtl
o Cone
v 0.000000 -1.000000 0.000000
v 0.000000 -1.000000 -1.000000
v 0.382683 -1.000000 -0.923880
v 0.707107 -1.000000 -0.707107
v 0.923880 -1.000000 -0.382683
v 1.000000 -1.000000 0.000000
v 0.923880 -1.000000 0.382684
v 0.707107 -1.000000 0.707107
v 0.382683 -1.000000 0.923880
v 0.000000 -1.000000 1.000000
v -0.382683 -1.000000 0.923880
v -0.707107 -1.000000 0.707107
v -0.923880 -1.000000 0.382684
v -1.000000 -1.000000 -0.000000
v -0.923879 -1.000000 -0.382684
v -0.707107 -1.000000 -0.707107
v -0.382683 -1.000000 -0.923880
v 0.000000 0.000000 0.000000
vt 0.750000 0.250000
vt 0.750000 0.490000
vt 0.841844 0.471731
vt 0.250000 0.490000
vt 0.250000 0.250000
vt 0.341844 0.471731
vt 0.919706 0.419706
vt 0.419706 0.419706
vt 0.971731 0.341844
vt 0.471731 0.341844
vt 0.990000 0.250000
vt 0.490000 0.250000
vt 0.971731 0.158156
vt 0.471731 0.158156
vt 0.919706 0.080294
vt 0.419706 0.080294
vt 0.841844 0.028269
vt 0.341844 0.028269
vt 0.750000 0.010000
vt 0.250000 0.010000
vt 0.658156 0.028269
vt 0.158156 0.028269
vt 0.580294 0.080294
vt 0.080294 0.080294
vt 0.528269 0.158156
vt 0.028269 0.158156
vt 0.510000 0.250000
vt 0.010000 0.250000
vt 0.528269 0.341844
vt 0.028269 0.341844
vt 0.580294 0.419706
vt 0.080294 0.419706
vt 0.658156 0.471731
vt 0.158156 0.471731
vn 0.0000 -1.0000 0.0000
vn 0.1393 0.7002 -0.7002
vn 0.3966 0.7002 -0.5936
vn 0.5936 0.7002 -0.3966
vn 0.7002 0.7002 -0.1393
vn 0.7002 0.7002 0.1393
vn 0.5936 0.7002 0.3966
vn 0.3966 0.7002 0.5936
vn 0.1393 0.7002 0.7002
vn -0.1393 0.7002 0.7002
vn -0.3966 0.7002 0.5936
vn -0.5936 0.7002 0.3966
vn -0.7002 0.7002 0.1393
vn -0.7002 0.7002 -0.1393
vn -0.5936 0.7002 -0.3966
vn -0.3966 0.7002 -0.5936
vn -0.1393 0.7002 -0.7002
usemtl None
s off
f 1/1/1 2/2/1 3/3/1
f 2/4/2 18/5/2 3/6/2
f 1/1/1 3/3/1 4/7/1
f 3/6/3 18/5/3 4/8/3
f 1/1/1 4/7/1 5/9/1
f 4/8/4 18/5/4 5/10/4
f 1/1/1 5/9/1 6/11/1
f 5/10/5 18/5/5 6/12/5
f 1/1/1 6/11/1 7/13/1
f 6/12/6 18/5/6 7/14/6
f 1/1/1 7/13/1 8/15/1
f 7/14/7 18/5/7 8/16/7
f 1/1/1 8/15/1 9/17/1
f 8/16/8 18/5/8 9/18/8
f 1/1/1 9/17/1 10/19/1
f 9/18/9 18/5/9 10/20/9
f 1/1/1 10/19/1 11/21/1
f 10/20/10 18/5/10 11/22/10
f 1/1/1 11/21/1 12/23/1
f 11/22/11 18/5/11 12/24/11
f 1/1/1 12/23/1 13/25/1
f 12/24/12 18/5/12 13/26/12
f 1/1/1 13/25/1 14/27/1
f 13/26/13 18/5/13 14/28/13
f 1/1/1 14/27/1 15/29/1
f 14/28/14 18/5/14 15/30/14
f 1/1/1 15/29/1 16/31/1
f 15/30/15 18/5/15 16/32/15
f 1/1/1 16/31/1 17/33/1
f 16/32/16 18/5/16 17/34/16
f 1/1/1 17/33/1 2/2/1
f 17/34/17 18/5/17 2/4/17
