<?xml version="1.0" encoding="UTF-8" standalone="no"?>
<svg
   xmlns:dc="http://purl.org/dc/elements/1.1/"
   xmlns:cc="http://creativecommons.org/ns#"
   xmlns:rdf="http://www.w3.org/1999/02/22-rdf-syntax-ns#"
   xmlns:svg="http://www.w3.org/2000/svg"
   xmlns="http://www.w3.org/2000/svg"
   xmlns:xlink="http://www.w3.org/1999/xlink"
   xmlns:sodipodi="http://sodipodi.sourceforge.net/DTD/sodipodi-0.dtd"
   xmlns:inkscape="http://www.inkscape.org/namespaces/inkscape"
   inkscape:version="1.0.1 (3bc2e813f5, 2020-09-07)"
   sodipodi:docname="dmg-back.svg"
   id="svg8"
   version="1.1"
   viewBox="0 0 132.29167 132.29167"
   height="500"
   width="500"
   inkscape:export-filename="/home/jpc/documents/projects/sfizz/dmg-back@2x.png"
   inkscape:export-xdpi="191.99998"
   inkscape:export-ydpi="191.99998">
  <title
     id="title1469">sfizz logo</title>
  <defs
     id="defs2">
    <linearGradient
       id="linearGradient1445"
       inkscape:collect="always">
      <stop
         id="stop1441"
         offset="0"
         style="stop-color:#646464;stop-opacity:1" />
      <stop
         id="stop1443"
         offset="1"
         style="stop-color:#000000;stop-opacity:1" />
    </linearGradient>
    <inkscape:path-effect
       effect="fillet_chamfer"
       id="path-effect1150"
       is_visible="true"
       lpeversion="1"
       satellites_param="F,0,0,1,0,1,0,2 @ F,0,0,1,0,0,0,2 @ F,0,0,1,0,1,0,2 @ F,0,0,1,0,0,0,2 | F,0,0,1,0,0,0,2 @ F,0,0,1,0,0.47797039,0,2 @ F,0,0,1,0,0,0,2 @ F,0,0,1,0,0.51256137,0,2 | F,0,0,1,0,0,0,2 @ F,0,0,1,0,0.33778335,0,2 @ F,0,0,1,0,0,0,2 @ F,0,0,1,0,0.27944107,0,2 | F,0,0,1,0,0,0,2 @ F,0,0,1,0,0.25554572,0,2 @ F,0,0,1,0,0,0,2 @ F,0,0,1,0,0.29009315,0,2"
       unit="mm"
       method="auto"
       mode="C"
       radius="1"
       chamfer_steps="2"
       flexible="false"
       use_knot_distance="true"
       apply_no_radius="true"
       apply_with_radius="true"
       only_selected="false"
       hide_knots="false" />
    <inkscape:path-effect
       hide_knots="false"
       only_selected="false"
       apply_with_radius="true"
       apply_no_radius="true"
       use_knot_distance="true"
       flexible="false"
       chamfer_steps="2"
       radius="1"
       mode="C"
       method="auto"
       unit="mm"
       satellites_param="F,0,0,1,0,1,0,2 @ F,0,0,1,0,0,0,2 @ F,0,0,1,0,1,0,2 @ F,0,0,1,0,0,0,2 | F,0,0,1,0,0,0,2 @ F,0,0,1,0,0.47797039,0,2 @ F,0,0,1,0,0,0,2 @ F,0,0,1,0,0.51256137,0,2 | F,0,0,1,0,0,0,2 @ F,0,0,1,0,0.33778335,0,2 @ F,0,0,1,0,0,0,2 @ F,0,0,1,0,0.27944107,0,2 | F,0,0,1,0,0,0,2 @ F,0,0,1,0,0.25554572,0,2 @ F,0,0,1,0,0,0,2 @ F,0,0,1,0,0.29009315,0,2"
       lpeversion="1"
       is_visible="true"
       id="path-effect1136"
       effect="fillet_chamfer" />
    <inkscape:path-effect
       hide_knots="false"
       only_selected="false"
       apply_with_radius="true"
       apply_no_radius="true"
       use_knot_distance="true"
       flexible="false"
       chamfer_steps="2"
       radius="1"
       mode="C"
       method="auto"
       unit="mm"
       satellites_param="F,0,0,1,0,1,0,2 @ F,0,0,1,0,0,0,2 @ F,0,0,1,0,1,0,2 @ F,0,0,1,0,0,0,2 | F,0,0,1,0,0,0,2 @ F,0,0,1,0,0.47797039,0,2 @ F,0,0,1,0,0,0,2 @ F,0,0,1,0,0.51256137,0,2 | F,0,0,1,0,0,0,2 @ F,0,0,1,0,0.33778335,0,2 @ F,0,0,1,0,0,0,2 @ F,0,0,1,0,0.27944107,0,2 | F,0,0,1,0,0,0,2 @ F,0,0,1,0,0.25554572,0,2 @ F,0,0,1,0,0,0,2 @ F,0,0,1,0,0.29009315,0,2"
       lpeversion="1"
       is_visible="true"
       id="path-effect968"
       effect="fillet_chamfer" />
    <inkscape:path-effect
       effect="fillet_chamfer"
       id="path-effect921"
       is_visible="true"
       lpeversion="1"
       satellites_param="F,0,0,1,0,1,0,2 @ F,0,0,1,0,0,0,2 @ F,0,0,1,0,1,0,2 @ F,0,0,1,0,0,0,2 | F,0,0,1,0,0,0,2 @ F,0,0,1,0,0.47797039,0,2 @ F,0,0,1,0,0,0,2 @ F,0,0,1,0,0.51256137,0,2 | F,0,0,1,0,0,0,2 @ F,0,0,1,0,0.33778335,0,2 @ F,0,0,1,0,0,0,2 @ F,0,0,1,0,0.27944107,0,2 | F,0,0,1,0,0,0,2 @ F,0,0,1,0,0.25554572,0,2 @ F,0,0,1,0,0,0,2 @ F,0,0,1,0,0.29009315,0,2"
       unit="mm"
       method="auto"
       mode="C"
       radius="1"
       chamfer_steps="2"
       flexible="false"
       use_knot_distance="true"
       apply_no_radius="true"
       apply_with_radius="true"
       only_selected="false"
       hide_knots="false" />
    <inkscape:path-effect
       hide_knots="false"
       only_selected="false"
       apply_with_radius="true"
       apply_no_radius="true"
       use_knot_distance="true"
       flexible="false"
       chamfer_steps="2"
       radius="1"
       mode="C"
       method="auto"
       unit="mm"
       satellites_param="F,0,0,1,0,1,0,2 @ F,0,0,1,0,0,0,2 @ F,0,0,1,0,1,0,2 @ F,0,0,1,0,0,0,2 | F,0,0,1,0,0,0,2 @ F,0,0,1,0,0.47797039,0,2 @ F,0,0,1,0,0,0,2 @ F,0,0,1,0,0.51256137,0,2 | F,0,0,1,0,0,0,2 @ F,0,0,1,0,0.33778335,0,2 @ F,0,0,1,0,0,0,2 @ F,0,0,1,0,0.27944107,0,2 | F,0,0,1,0,0,0,2 @ F,0,0,1,0,0.25554572,0,2 @ F,0,0,1,0,0,0,2 @ F,0,0,1,0,0.29009315,0,2"
       lpeversion="1"
       is_visible="true"
       id="path-effect1183"
       effect="fillet_chamfer" />
    <inkscape:path-effect
       end_linecap_type="zerowidth"
       scale_width="1"
       miter_limit="4"
       linejoin_type="round"
       start_linecap_type="zerowidth"
       interpolator_beta="0.2"
       interpolator_type="CubicBezierFit"
       sort_points="true"
       offset_points="0.19099662,0.36320029 | 0.41721681,0.40988822 | 0.9095762,0.070646707"
       lpeversion="1"
       is_visible="true"
       id="path-effect1172"
       effect="powerstroke" />
    <clipPath
       id="clipPath917"
       clipPathUnits="userSpaceOnUse">
      <rect
         y="68.872978"
         x="24.792475"
         height="25.252825"
         width="39.659527"
         id="rect919"
         style="fill:#ffffff;stroke:none;stroke-width:2;stroke-linecap:round;paint-order:markers stroke fill" />
    </clipPath>
    <linearGradient
       gradientUnits="userSpaceOnUse"
       y2="231.60674"
       x2="539.22601"
       y1="190.42654"
       x1="539.22601"
       id="linearGradient1447"
       xlink:href="#linearGradient1445"
       inkscape:collect="always"
       gradientTransform="matrix(0.78050084,0,0,0.78050084,119.67776,83.095354)" />
  </defs>
  <sodipodi:namedview
     fit-margin-bottom="0"
     fit-margin-right="0"
     fit-margin-left="0"
     fit-margin-top="0"
     inkscape:snap-bbox-midpoints="true"
     inkscape:snap-center="true"
     inkscape:snap-bbox-edge-midpoints="true"
     inkscape:bbox-paths="true"
     inkscape:snap-bbox="true"
     inkscape:guide-bbox="true"
     inkscape:window-maximized="0"
     inkscape:window-y="25"
     inkscape:window-x="-4"
     inkscape:window-height="1030"
     inkscape:window-width="1625"
     showguides="false"
     inkscape:snap-global="false"
     showgrid="false"
     inkscape:document-rotation="0"
     inkscape:current-layer="layer1"
     inkscape:document-units="px"
     inkscape:cy="261.26589"
     inkscape:cx="359.32592"
     inkscape:zoom="1.0874375"
     inkscape:pageshadow="2"
     inkscape:pageopacity="1"
     borderopacity="1.0"
     bordercolor="#666666"
     pagecolor="#d3d7cf"
     id="base"
     units="px">
    <sodipodi:guide
       id="guide899"
       orientation="1,0"
       position="-426.26068,186.35762" />
    <sodipodi:guide
       id="guide901"
       orientation="0,-1"
       position="-325.51804,164.37052" />
    <sodipodi:guide
       id="guide1008"
       orientation="1,0"
       position="-510.78712,166.87427" />
    <sodipodi:guide
       id="guide1185"
       orientation="1,0"
       position="-325.56067,164.3767" />
  </sodipodi:namedview>
  <metadata
     id="metadata5">
    <rdf:RDF>
      <cc:Work
         rdf:about="">
        <dc:format>image/svg+xml</dc:format>
        <dc:type
           rdf:resource="http://purl.org/dc/dcmitype/StillImage" />
        <dc:title>sfizz logo</dc:title>
        <dc:date>2020-05-16</dc:date>
        <dc:creator>
          <cc:Agent>
            <dc:title>Tobiasz 'unfa' Karoń</dc:title>
          </cc:Agent>
        </dc:creator>
        <dc:rights>
          <cc:Agent>
            <dc:title>CC-0</dc:title>
          </cc:Agent>
        </dc:rights>
        <cc:license
           rdf:resource="http://creativecommons.org/publicdomain/zero/1.0/" />
      </cc:Work>
      <cc:License
         rdf:about="http://creativecommons.org/publicdomain/zero/1.0/">
        <cc:permits
           rdf:resource="http://creativecommons.org/ns#Reproduction" />
        <cc:permits
           rdf:resource="http://creativecommons.org/ns#Distribution" />
        <cc:permits
           rdf:resource="http://creativecommons.org/ns#DerivativeWorks" />
      </cc:License>
    </rdf:RDF>
  </metadata>
  <g
     transform="translate(-469.72446,-181.87311)"
     id="layer1"
     inkscape:groupmode="layer"
     inkscape:label="Layer 1">
    <path
       id="path1439"
       style="font-style:normal;font-variant:normal;font-weight:normal;font-stretch:normal;font-size:34.8154px;line-height:1.25;font-family:ABeeZee;-inkscape-font-specification:ABeeZee;letter-spacing:0px;word-spacing:0px;fill:url(#linearGradient1447);fill-opacity:1;stroke:none;stroke-width:0.206508"
       d="m 537.5277,243.5709 h 10.62481 v 1.87496 l -7.7716,10.08135 h 7.90747 v 2.17387 h -10.92372 v -1.92931 l 7.79878,-10.08134 h -7.63574 z m -12.82582,0 h 10.62482 v 1.87496 l -7.7716,10.08135 h 7.90747 v 2.17387 h -10.92373 v -1.92931 l 7.79878,-10.08134 h -7.63574 z m -4.98254,14.13018 h -2.44561 l 2.47278,-14.13018 h 2.44562 z m 1.82063,-16.54862 q -0.76086,0 -1.16847,-0.43478 -0.38042,-0.46194 -0.38042,-1.05976 0,-0.86955 0.54347,-1.38585 0.54346,-0.54347 1.35867,-0.54347 0.76086,0 1.14128,0.46195 0.4076,0.43477 0.4076,1.03259 0,0.86955 -0.54346,1.41302 -0.54347,0.5163 -1.35867,0.5163 z m -9.55753,2.93473 h 4.18471 l -0.38042,2.11953 h -4.18471 l -2.39127,13.45085 q -0.21738,1.19564 -0.62498,2.01084 -0.4076,0.84238 -0.97825,1.35867 -0.57064,0.51629 -1.30433,0.73369 -0.73368,0.24456 -1.57606,0.24456 -0.89672,0 -1.6304,-0.24456 -0.76086,-0.24456 -1.3315,-0.67934 l 0.97825,-2.01084 q 0.38042,0.38043 0.89671,0.59782 0.48913,0.21738 1.11412,0.21738 0.73368,0 1.24997,-0.51629 0.54347,-0.51629 0.76087,-1.65758 l 2.39126,-13.5052 h -2.17388 l 0.38043,-2.11953 h 2.17388 l 0.4076,-2.17387 q 0.46195,-2.49996 1.76627,-3.55973 1.30433,-1.08694 3.34233,-1.08694 1.11411,0 2.06518,0.29891 0.95108,0.27174 1.71193,0.67934 l -0.95107,2.06518 q -0.62499,-0.32608 -1.30433,-0.59782 -0.65215,-0.27173 -1.54888,-0.27173 -1.00541,0 -1.71192,0.59781 -0.70651,0.57065 -0.92391,1.79345 z m -17.14149,10.4346 q 0.70651,0.625 1.76627,1.00542 1.08695,0.38043 2.30975,0.38043 1.52171,0 2.28257,-0.48912 0.78803,-0.5163 0.78803,-1.30433 0,-0.4076 -0.16304,-0.76085 -0.13587,-0.35326 -0.54347,-0.67934 -0.38043,-0.32608 -1.05977,-0.62499 -0.67934,-0.32608 -1.76627,-0.70651 -2.01083,-0.67934 -2.98908,-1.60323 -0.97824,-0.95108 -0.97824,-2.60866 0,-0.8152 0.35325,-1.52171 0.38043,-0.70651 1.05977,-1.2228 0.7065,-0.54347 1.68475,-0.84238 1.00542,-0.29891 2.28257,-0.29891 1.38584,0 2.41844,0.29891 1.05976,0.27173 1.90214,0.70651 l -0.67934,2.01083 q -0.73368,-0.43477 -1.68475,-0.7065 -0.9239,-0.27174 -2.06518,-0.27174 -1.41302,0 -2.14671,0.57064 -0.73368,0.57064 -0.73368,1.24998 0,0.32608 0.1087,0.59782 0.13586,0.27173 0.46194,0.51629 0.32608,0.24457 0.86955,0.48913 0.54347,0.24455 1.35867,0.51629 1.33151,0.46195 2.2554,0.95107 0.9239,0.46195 1.49454,1.03259 0.57064,0.57065 0.81521,1.24998 0.24456,0.65216 0.24456,1.46737 0,0.95107 -0.4076,1.71192 -0.40761,0.76086 -1.14129,1.30433 -0.73369,0.51629 -1.79345,0.78803 -1.03259,0.29891 -2.30974,0.29891 -1.63041,0 -2.90756,-0.4076 -1.27715,-0.4076 -2.11953,-1.05977 z m 71.92598,-11.54492 a 0.26982447,0.26982447 0 0 0 -0.26258,0.26982 0.26982447,0.26982447 0 0 0 0.26983,0.26984 0.26982447,0.26982447 0 0 0 0.26984,-0.26984 0.26982447,0.26982447 0 0 0 -0.26984,-0.26982 0.26982447,0.26982447 0 0 0 -0.007,0 z m -3.96075,1.06642 a 0.46564957,0.46564957 0 0 0 -0.46223,0.4239 c -1.0885,-0.0239 -0.77963,-0.26136 -2.17801,-0.26136 -1.47156,0 -1.03303,0.2658 -2.34337,0.2658 -1.30936,0 -0.87338,-0.26541 -2.34096,-0.2658 -1.25659,1.86319 -1.9299,4.05802 -1.93521,6.30493 h 0.0331 l 1.1971,-2.19656 1.19669,2.19656 h 0.0875 l 1.23421,-5.62854 1.23419,5.62854 h 0.0581 l 1.22615,-4.2689 1.22652,4.2689 h 0.1807 l 1.11158,-0.86636 1.11162,0.86636 h 0.21375 l 1.19308,-2.06951 1.19306,2.06951 h 0.21941 l 1.10634,-0.82885 1.10595,0.82885 h 0.39326 l 1.01921,-0.48804 1.01924,0.48804 h 0.30735 l 1.19183,-2.03483 1.19227,2.03483 h 0.45457 l 0.87199,-0.25894 0.87203,0.25894 h 0.39647 c -0.005,-2.24691 -0.67863,-4.44174 -1.9352,-6.30493 h -0.0303 c -1.47156,0 -1.03345,0.2658 -2.34379,0.2658 -1.31032,0 -0.8722,-0.2658 -2.34377,-0.2658 -1.47157,0 -1.03304,0.2658 -2.34339,0.2658 -1.31031,0 -0.8722,-0.2658 -2.34377,-0.2658 -1.06715,0 -1.13506,0.13895 -1.58873,0.21578 a 0.46564957,0.46564957 0 0 0 -0.4574,-0.37832 0.46564957,0.46564957 0 0 0 -0.002,0 z m -2.77253,0.94824 a 0.27476871,0.27476871 0 0 1 0.27506,0.27507 0.27476871,0.27476871 0 0 1 -0.27506,0.27467 0.27476871,0.27476871 0 0 1 -0.27468,-0.27467 0.27476871,0.27476871 0 0 1 0.27468,-0.27507 z m 11.23085,0.3997 a 0.639246,0.639246 0 0 1 0.6393,0.63928 0.639246,0.639246 0 0 1 -0.6393,0.63929 0.639246,0.639246 0 0 1 -0.63929,-0.63929 0.639246,0.639246 0 0 1 0.63929,-0.63928 z m -9.64333,1.26889 a 0.53609802,0.53609802 0 0 1 0.002,0 0.53609802,0.53609802 0 0 1 0.53604,0.53644 0.53609802,0.53609802 0 0 1 -0.53604,0.53603 0.53609802,0.53609802 0 0 1 -0.53603,-0.53603 0.53609802,0.53609802 0 0 1 0.53362,-0.53644 z m 7.77268,1.27897 a 0.51502185,0.51502185 0 0 1 0.51505,0.51507 0.51502185,0.51502185 0 0 1 -0.51505,0.51506 0.51502185,0.51502185 0 0 1 -0.51507,-0.51506 0.51502185,0.51502185 0 0 1 0.51507,-0.51507 z m -15.8426,2.80076 c 0.10821,6.1605 5.13244,11.12197 11.31878,11.12197 6.18634,0 11.21057,-4.96147 11.3188,-11.12197 H 575.8 l -0.87483,0.25975 -0.87483,-0.25975 H 573.599 l -1.19266,2.03563 -1.19225,-2.03563 h -0.30532 l -1.02085,0.48885 -1.02083,-0.48885 h -0.39084 l -1.10675,0.82967 -1.10715,-0.82967 h -0.2182 l -1.19347,2.07032 -1.19347,-2.07032 h -0.21216 l -1.11281,0.86718 -1.11278,-0.86718 h -0.17909 l -1.22694,4.26971 -1.22656,-4.26971 h -0.0577 l -1.23419,5.62935 -1.23422,-5.62935 h -0.0871 l -1.19708,2.19737 -1.19752,-2.19737 z m 15.07262,1.94206 a 0.36715848,0.36715848 0 0 1 0.36704,0.36744 0.36715848,0.36715848 0 0 1 -0.36704,0.36703 0.36715848,0.36715848 0 0 1 -0.36744,-0.36703 0.36715848,0.36715848 0 0 1 0.36744,-0.36744 z m -6.56306,1.51977 a 0.33459254,0.33459254 0 0 1 0.33477,0.33477 0.33459254,0.33459254 0 0 1 -0.33477,0.33436 0.33459254,0.33459254 0 0 1 -0.33436,-0.33436 0.33459254,0.33459254 0 0 1 0.33436,-0.33477 z m 7.48065,0.91517 a 0.27662049,0.27662049 0 0 1 0.27668,0.27668 0.27662049,0.27662049 0 0 1 -0.27668,0.27669 0.27662049,0.27662049 0 0 1 -0.27668,-0.27669 0.27662049,0.27662049 0 0 1 0.27668,-0.27668 z m -2.4301,2.2252 a 0.27662049,0.27662049 0 0 1 0.2767,0.27668 0.27662049,0.27662049 0 0 1 -0.2767,0.27669 0.27662049,0.27662049 0 0 1 -0.27629,-0.27669 0.27662049,0.27662049 0 0 1 0.27629,-0.27668 z m -5.71526,0.37147 a 0.27476871,0.27476871 0 0 1 0.0109,0 0.27476871,0.27476871 0 0 1 0.27507,0.27466 0.27476871,0.27476871 0 0 1 -0.27507,0.27468 0.27476871,0.27476871 0 0 1 -0.27468,-0.27468 0.27476871,0.27476871 0 0 1 0.26377,-0.27466 z m 3.51829,2.68217 a 0.19698944,0.19698944 0 0 1 0.004,0 0.19698944,0.19698944 0 0 1 0.19723,0.19683 0.19698944,0.19698944 0 0 1 -0.19723,0.19723 0.19698944,0.19698944 0 0 1 -0.19683,-0.19723 0.19698944,0.19698944 0 0 1 0.19278,-0.19683 z m 6.0008,-28.3617 c -0.19185,0.0134 -0.37374,0.11908 -0.47755,0.29887 -0.16607,0.28766 -0.0678,0.65309 0.21983,0.81917 l 0.25006,0.14439 -3.01332,5.21916 a 12.488013,12.488013 0 0 0 -13.88682,5.86005 12.488013,12.488013 0 0 0 4.571,17.05905 12.488013,12.488013 0 0 0 17.05866,-4.57099 12.488013,12.488013 0 0 0 -1.86826,-14.95606 l 3.01332,-5.21916 0.25047,0.14439 c 0.28767,0.16609 0.65269,0.0678 0.81876,-0.21982 0.1661,-0.28766 0.0683,-0.65267 -0.21941,-0.81876 l -6.37511,-3.68084 c -0.10786,-0.0623 -0.22651,-0.0875 -0.34163,-0.0794 z m 0.0504,0.50658 c 0.0116,0.002 0.024,0.007 0.0367,0.0145 l 6.37512,3.68043 c 0.0506,0.0292 0.0617,0.0717 0.0323,0.12261 -0.0294,0.0509 -0.0713,0.0624 -0.12221,0.0331 l -0.25048,-0.1448 a 0.50986715,0.50986715 0 0 0 -0.69656,0.18674 l -3.01332,5.21956 a 0.50986715,0.50986715 0 0 0 0.0766,0.61025 c 1.80469,1.85315 2.98342,4.30525 3.30411,6.87202 0.3207,2.56676 -0.21882,5.23358 -1.51209,7.4738 -1.56793,2.71577 -4.24431,4.76972 -7.27334,5.58135 -3.02905,0.81163 -6.3734,0.37086 -9.08914,-1.1971 -2.7158,-1.56794 -4.76975,-4.2439 -5.58137,-7.27294 -0.81163,-3.02905 -0.37127,-6.37379 1.1967,-9.08956 1.2934,-2.24022 3.33317,-4.04081 5.71646,-5.04652 2.38328,-1.00572 5.09637,-1.21112 7.60366,-0.57475 a 0.50986715,0.50986715 0 0 0 0.5671,-0.23878 l 3.01331,-5.21916 a 0.50986715,0.50986715 0 0 0 -0.18675,-0.69656 l -0.25005,-0.14439 c -0.0509,-0.0294 -0.0623,-0.072 -0.0331,-0.12262 0.0219,-0.0379 0.0515,-0.0538 0.0863,-0.0472 z" />
  </g>
</svg>
